<svg width="128" height="128" viewBox="0 0 128 128" fill="none" xmlns="http://www.w3.org/2000/svg">
  <path
      d="M100.8 49.5C105 39.3 101.7 33.5 99.8 28.3C98.1 23.7 102.8 21.4 102.8 21.4C101 21.4 99 20.6 99 20.6C102.6 18.1 104.8 11.5 104.8 11.5C102.3 13.8 98.9 13.9 98.9 13.9C104.5 8.5 102.8 1 102.8 1C102.8 1 97 8.8 86.2 13.5C77.4 17.3 67.7 18.2 64.1 18.2C60.5 18.2 50.8 17.3 42 13.5C31.1 8.9 25.3 1 25.3 1C25.3 1 23.5 8.5 29.2 13.9C29.2 13.9 25.8 13.8 23.3 11.5C23.3 11.5 25.4 18.1 29.1 20.6C29.1 20.6 27.1 21.4 25.3 21.4C25.3 21.4 30 23.7 28.3 28.3C26.4 33.5 23.1 39.2 27.3 49.5C27.3 49.5 -1.39996 97.4 60.9 125.8C61.9 126.3 63 126.5 64.1 126.5C65.2 126.5 66.3 126.2 67.3 125.8C129.5 97.4 100.8 49.5 100.8 49.5Z"
      fill="#885C52"/>
  <path
      d="M82.4 56.3C90.5185 56.3 97.1 49.7186 97.1 41.6C97.1 33.4814 90.5185 26.9 82.4 26.9C74.2814 26.9 67.7 33.4814 67.7 41.6C67.7 49.7186 74.2814 56.3 82.4 56.3Z"
      fill="#BB917A"/>
  <path
      d="M82.4 52.9C88.6408 52.9 93.7 47.8408 93.7 41.6C93.7 35.3592 88.6408 30.3 82.4 30.3C76.1592 30.3 71.1 35.3592 71.1 41.6C71.1 47.8408 76.1592 52.9 82.4 52.9Z"
      fill="white"/>
  <path
      d="M82.4 48.1C85.9899 48.1 88.9 45.1899 88.9 41.6C88.9 38.0102 85.9899 35.1 82.4 35.1C78.8102 35.1 75.9 38.0102 75.9 41.6C75.9 45.1899 78.8102 48.1 82.4 48.1Z"
      fill="#2F2F2F"/>
  <path
      d="M45.7 56.3C53.8186 56.3 60.4 49.7186 60.4 41.6C60.4 33.4814 53.8186 26.9 45.7 26.9C37.5814 26.9 31 33.4814 31 41.6C31 49.7186 37.5814 56.3 45.7 56.3Z"
      fill="#BB917A"/>
  <path
      d="M45.7 52.9C51.9408 52.9 57 47.8408 57 41.6C57 35.3592 51.9408 30.3 45.7 30.3C39.4592 30.3 34.4 35.3592 34.4 41.6C34.4 47.8408 39.4592 52.9 45.7 52.9Z"
      fill="white"/>
  <path
      d="M45.7 48.1C49.2898 48.1 52.2 45.1899 52.2 41.6C52.2 38.0102 49.2898 35.1 45.7 35.1C42.1101 35.1 39.2 38.0102 39.2 41.6C39.2 45.1899 42.1101 48.1 45.7 48.1Z"
      fill="#2F2F2F"/>
  <path d="M38.4 81.7C38.4 68.1 45.4 60 64 60V115.8C64 115.8 55.5 115.3 49.1 108.2C44.1 102.6 38.4 92.5 38.4 81.7V81.7Z"
        fill="#FEF6E0"/>
  <path d="M89.6 81.7C89.6 68.1 82.6 60 64 60V115.8C64 115.8 72.5 115.3 78.9 108.2C83.9 102.6 89.6 92.5 89.6 81.7Z"
        fill="#FEF6E0"/>
  <path
      d="M37.1 121C35.5 121 34.1 119.7 34.1 118V108.5C34.1 106.9 35.4 105.5 37.1 105.5C38.7 105.5 40.1 106.8 40.1 108.5V118C40 119.7 38.7 121 37.1 121Z"
      fill="#FFC148"/>
  <path
      d="M37.1 106C38.5 106 39.6 107.1 39.6 108.5V118C39.6 119.4 38.5 120.5 37.1 120.5C35.7 120.5 34.6 119.4 34.6 118V108.5C34.6 107.1 35.7 106 37.1 106ZM37.1 105C35.2 105 33.6 106.6 33.6 108.5V118C33.6 119.9 35.2 121.5 37.1 121.5C39 121.5 40.6 119.9 40.6 118V108.5C40.5 106.6 39 105 37.1 105Z"
      fill="#885C52"/>
  <path
      d="M43.1 121C41.5 121 40.1 119.7 40.1 118V108.5C40.1 106.9 41.4 105.5 43.1 105.5C44.7 105.5 46.1 106.8 46.1 108.5V118C46.1 119.7 44.7 121 43.1 121Z"
      fill="#FFC148"/>
  <path
      d="M43.1 106C44.5 106 45.6 107.1 45.6 108.5V118C45.6 119.4 44.5 120.5 43.1 120.5C41.7 120.5 40.6 119.4 40.6 118V108.5C40.6 107.1 41.7 106 43.1 106ZM43.1 105C41.2 105 39.6 106.6 39.6 108.5V118C39.6 119.9 41.2 121.5 43.1 121.5C45 121.5 46.6 119.9 46.6 118V108.5C46.6 106.6 45 105 43.1 105Z"
      fill="#885C52"/>
  <path
      d="M49.3 121C47.7 121 46.3 119.7 46.3 118V108.5C46.3 106.9 47.6 105.5 49.3 105.5C51 105.5 52.3 106.8 52.3 108.5V118C52.3 119.7 50.9 121 49.3 121Z"
      fill="#FFC148"/>
  <path
      d="M49.3 106C50.7 106 51.8 107.1 51.8 108.5V118C51.8 119.4 50.7 120.5 49.3 120.5C47.9 120.5 46.8 119.4 46.8 118V108.5C46.8 107.1 47.9 106 49.3 106ZM49.3 105C47.4 105 45.8 106.6 45.8 108.5V118C45.8 119.9 47.4 121.5 49.3 121.5C51.2 121.5 52.8 119.9 52.8 118V108.5C52.8 106.6 51.2 105 49.3 105Z"
      fill="#885C52"/>
  <path
      d="M78.4 121C76.8 121 75.4 119.7 75.4 118V108.5C75.4 106.9 76.7 105.5 78.4 105.5C80 105.5 81.4 106.8 81.4 108.5V118C81.4 119.7 80 121 78.4 121Z"
      fill="#FFC148"/>
  <path
      d="M78.4 106C79.8 106 80.9 107.1 80.9 108.5V118C80.9 119.4 79.8 120.5 78.4 120.5C77 120.5 75.9 119.4 75.9 118V108.5C75.9 107.1 77 106 78.4 106ZM78.4 105C76.5 105 74.9 106.6 74.9 108.5V118C74.9 119.9 76.5 121.5 78.4 121.5C80.3 121.5 81.9 119.9 81.9 118V108.5C81.9 106.6 80.3 105 78.4 105Z"
      fill="#885C52"/>
  <path
      d="M84.4 121C82.8 121 81.4 119.7 81.4 118V108.5C81.4 106.9 82.7 105.5 84.4 105.5C86.1 105.5 87.4 106.8 87.4 108.5V118C87.4 119.7 86.1 121 84.4 121Z"
      fill="#FFC148"/>
  <path
      d="M84.4 106C85.8 106 86.9 107.1 86.9 108.5V118C86.9 119.4 85.8 120.5 84.4 120.5C83 120.5 81.9 119.4 81.9 118V108.5C81.9 107.1 83 106 84.4 106ZM84.4 105C82.5 105 80.9 106.6 80.9 108.5V118C80.9 119.9 82.5 121.5 84.4 121.5C86.3 121.5 87.9 119.9 87.9 118V108.5C87.9 106.6 86.3 105 84.4 105Z"
      fill="#885C52"/>
  <path
      d="M90.6 121C89 121 87.6 119.7 87.6 118V108.5C87.6 106.9 88.9 105.5 90.6 105.5C92.2 105.5 93.6 106.8 93.6 108.5V118C93.6 119.7 92.2 121 90.6 121Z"
      fill="#FFC148"/>
  <path
      d="M90.6 106C92 106 93.1 107.1 93.1 108.5V118C93.1 119.4 92 120.5 90.6 120.5C89.2 120.5 88.1 119.4 88.1 118V108.5C88.1 107.1 89.2 106 90.6 106ZM90.6 105C88.7 105 87.1 106.6 87.1 108.5V118C87.1 119.9 88.7 121.5 90.6 121.5C92.5 121.5 94.1 119.9 94.1 118V108.5C94.1 106.6 92.5 105 90.6 105Z"
      fill="#885C52"/>
  <path
      d="M67.3 49.6C65.6 47.5 62.5 47.5 60.8 49.6C59.5 51.2 58.3 53.4 58.5 56.3C58.7 60.5 61.1 63.5 62.7 65C63.5 65.7 64.6 65.7 65.4 65C67 63.5 69.4 60.5 69.6 56.3C69.7 53.3 68.6 51.1 67.3 49.6V49.6Z"
      fill="#FFC148"/>
  <path
      d="M83.6 41.6C84.815 41.6 85.8 40.5703 85.8 39.3C85.8 38.0297 84.815 37 83.6 37C82.385 37 81.4 38.0297 81.4 39.3C81.4 40.5703 82.385 41.6 83.6 41.6Z"
      fill="white"/>
  <path
      d="M47.4 41.6C48.615 41.6 49.5999 40.5703 49.5999 39.3C49.5999 38.0297 48.615 37 47.4 37C46.1849 37 45.2 38.0297 45.2 39.3C45.2 40.5703 46.1849 41.6 47.4 41.6Z"
      fill="white"/>
  <path d="M46.6 76.7C49.1 81.4 55.8 81.4 58.2 76.7" stroke="#BB917A" stroke-width="3" stroke-miterlimit="10"
        stroke-linecap="round" stroke-linejoin="round"/>
  <path d="M58.2 76.7C60.7 81.4 67.4 81.4 69.8 76.7" stroke="#BB917A" stroke-width="3" stroke-miterlimit="10"
        stroke-linecap="round" stroke-linejoin="round"/>
  <path d="M69.7999 76.7C72.2999 81.4 78.9999 81.4 81.3999 76.7" stroke="#BB917A" stroke-width="3"
        stroke-miterlimit="10" stroke-linecap="round" stroke-linejoin="round"/>
  <path d="M52.4 92.6C54.9 97.3 61.6 97.3 64 92.6" stroke="#BB917A" stroke-width="3" stroke-miterlimit="10"
        stroke-linecap="round" stroke-linejoin="round"/>
  <path d="M64 92.6C66.5 97.3 73.2 97.3 75.6 92.6" stroke="#BB917A" stroke-width="3" stroke-miterlimit="10"
        stroke-linecap="round" stroke-linejoin="round"/>
</svg>
